<svg width="20" height="21" viewBox="0 0 20 21" fill="none" xmlns="http://www.w3.org/2000/svg">
<path d="M14.6 12.1036C14.4 12.0036 13.1 11.4036 12.9 11.3036C12.7 11.2036 12.5 11.2036 12.3 11.4036C12.1 11.6036 11.7 12.2036 11.5 12.4036C11.4 12.6036 11.2 12.6036 11 12.5036C10.3 12.2036 9.6 11.8036 9 11.3036C8.5 10.8036 8 10.2036 7.6 9.60364C7.5 9.40364 7.6 9.20364 7.7 9.10364C7.8 9.00364 7.9 8.80364 8.1 8.70364C8.2 8.60364 8.3 8.40364 8.3 8.30364C8.4 8.20364 8.4 8.00364 8.3 7.90364C8.2 7.80364 7.7 6.60364 7.5 6.10364C7.4 5.40364 7.2 5.40364 7 5.40364C6.9 5.40364 6.7 5.40364 6.5 5.40364C6.3 5.40364 6 5.60364 5.9 5.70364C5.3 6.30364 5 7.00364 5 7.80364C5.1 8.70364 5.4 9.60364 6 10.4036C7.1 12.0036 8.5 13.3036 10.2 14.1036C10.7 14.3036 11.1 14.5036 11.6 14.6036C12.1 14.8036 12.6 14.8036 13.2 14.7036C13.9 14.6036 14.5 14.1036 14.9 13.5036C15.1 13.1036 15.1 12.7036 15 12.3036C15 12.3036 14.8 12.2036 14.6 12.1036ZM17.1 3.00364C13.2 -0.896356 6.9 -0.896356 3 3.00364C-0.2 6.20364 -0.8 11.1036 1.4 15.0036L0 20.1036L5.3 18.7036C6.8 19.5036 8.4 19.9036 10 19.9036C15.5 19.9036 19.9 15.5036 19.9 10.0036C20 7.40364 18.9 4.90364 17.1 3.00364ZM14.4 17.0036C13.1 17.8036 11.6 18.3036 10 18.3036C8.5 18.3036 7.1 17.9036 5.8 17.2036L5.5 17.0036L2.4 17.8036L3.2 14.8036L3 14.5036C0.6 10.5036 1.8 5.50364 5.7 3.00364C9.6 0.503644 14.6 1.80364 17 5.60364C19.4 9.50364 18.3 14.6036 14.4 17.0036Z" fill="#F9F9F9"/>
</svg>
